<svg width="34" height="34" viewBox="0 0 34 34" fill="none" xmlns="http://www.w3.org/2000/svg">
<path d="M14.6064 2.03999C8.04863 2.03999 2.71997 7.24729 2.71997 13.6557C2.71997 20.064 8.04863 25.2713 14.6064 25.2713C17.201 25.2713 19.5991 24.4546 21.5546 23.072L30.7535 32.04L32.72 30.1183L23.6304 21.2144C25.4166 19.1806 26.4927 16.5409 26.4927 13.6557C26.4927 7.24729 21.1641 2.03999 14.6064 2.03999ZM14.6064 3.40654C20.4075 3.40654 25.0943 7.98662 25.0943 13.6557C25.0943 19.3247 20.4075 23.9048 14.6064 23.9048C8.80519 23.9048 4.11837 19.3247 4.11837 13.6557C4.11837 7.98662 8.80519 3.40654 14.6064 3.40654Z" fill="#EDE8F5"/>
</svg>
