<svg width="251" height="33" viewBox="0 0 251 33" fill="none" xmlns="http://www.w3.org/2000/svg">
<path d="M10.52 26H0.08V3.32C0.08 3.056 0.308 2.84 0.764 2.672C1.22 2.504 1.76 2.384 2.384 2.312C3.008 2.216 3.596 2.156 4.148 2.132C4.7 2.084 5.084 2.06 5.3 2.06H19.7V4.58H10.52V13.004H19.304V15.524H10.52V26ZM31.5702 26H21.4902V0.979998H31.5702V26ZM43.8405 6.2H33.7605V3.284C33.7605 3.02 33.9765 2.816 34.4085 2.672C34.8405 2.504 35.3565 2.384 35.9565 2.312C36.5805 2.216 37.1565 2.156 37.6845 2.132C38.2365 2.084 38.6085 2.06 38.8005 2.06H43.8405V6.2ZM33.7245 8H43.8045V26H33.7245V8ZM56.0741 29.852H58.9541V25.172H51.0341C50.8421 25.172 50.4701 25.16 49.9181 25.136C49.3901 25.088 48.8141 25.028 48.1901 24.956C47.5901 24.86 47.0741 24.728 46.6421 24.56C46.2101 24.392 45.9941 24.188 45.9941 23.948V19.7C45.9941 19.436 46.2101 19.232 46.6421 19.088C47.0741 18.92 47.5901 18.8 48.1901 18.728C48.8141 18.632 49.3901 18.572 49.9181 18.548C50.4701 18.5 50.8421 18.476 51.0341 18.476H58.9541V10.448H56.0741V16.676H51.0341C50.8421 16.676 50.4701 16.664 49.9181 16.64C49.3901 16.592 48.8141 16.532 48.1901 16.46C47.5901 16.364 47.0741 16.232 46.6421 16.064C46.2101 15.896 45.9941 15.692 45.9941 15.452V9.224C45.9941 8.96 46.2101 8.756 46.6421 8.612C47.0741 8.444 47.5901 8.324 48.1901 8.252C48.8141 8.156 49.3901 8.096 49.9181 8.072C50.4701 8.024 50.8421 8 51.0341 8H70.2941V10.448H64.5701V10.772C64.9301 10.796 65.3501 10.832 65.8301 10.88C66.3341 10.928 66.8261 11 67.3061 11.096C67.8101 11.192 68.2181 11.312 68.5301 11.456C68.8661 11.6 69.0341 11.78 69.0341 11.996V19.7C69.0341 19.94 68.8181 20.144 68.3861 20.312C67.9541 20.48 67.4261 20.612 66.8021 20.708C66.2021 20.78 65.6261 20.84 65.0741 20.888C64.5461 20.912 64.1861 20.924 63.9941 20.924H56.0741V22.724H63.9941C64.1861 22.724 64.5461 22.748 65.0741 22.796C65.6261 22.82 66.2021 22.88 66.8021 22.976C67.4261 23.048 67.9541 23.168 68.3861 23.336C68.8181 23.48 69.0341 23.684 69.0341 23.948V31.076C69.0341 31.316 68.8181 31.52 68.3861 31.688C67.9541 31.856 67.4261 31.976 66.8021 32.048C66.2021 32.144 65.6261 32.204 65.0741 32.228C64.5461 32.276 64.1861 32.3 63.9941 32.3H51.0341C50.8421 32.3 50.4701 32.276 49.9181 32.228C49.3901 32.204 48.8141 32.144 48.1901 32.048C47.5901 31.976 47.0741 31.856 46.6421 31.688C46.2101 31.52 45.9941 31.316 45.9941 31.076V28.196C45.9941 27.932 46.2101 27.716 46.6421 27.548C47.0741 27.404 47.5901 27.284 48.1901 27.188C48.8141 27.116 49.3901 27.056 49.9181 27.008C50.4701 26.984 50.8421 26.972 51.0341 26.972H56.0741V29.852ZM82.16 26H72.08V2.06H82.16V9.08C82.28 8.864 82.556 8.684 82.988 8.54C83.42 8.396 83.912 8.288 84.464 8.216C85.04 8.144 85.568 8.096 86.048 8.072C86.552 8.024 86.924 8 87.164 8H90.08C90.272 8 90.632 8.024 91.16 8.072C91.712 8.096 92.288 8.156 92.888 8.252C93.512 8.324 94.04 8.444 94.472 8.612C94.904 8.756 95.12 8.96 95.12 9.224V26H85.04V10.448H82.16V26ZM97.287 11.168V8.72H100.527V3.68H109.887V8.72H114.207V11.168H109.887V23.552H114.207V26H104.847C104.655 26 104.283 25.988 103.731 25.964C103.203 25.916 102.627 25.856 102.003 25.784C101.403 25.688 100.887 25.556 100.455 25.388C100.023 25.22 99.807 25.016 99.807 24.776V12.716C99.807 12.5 99.963 12.32 100.275 12.176C100.611 12.032 101.019 11.924 101.499 11.852C101.979 11.756 102.459 11.684 102.939 11.636C103.443 11.588 103.875 11.552 104.235 11.528V11.168H97.287ZM136.168 26H125.728V3.32C125.728 3.056 125.956 2.84 126.412 2.672C126.868 2.504 127.408 2.384 128.032 2.312C128.656 2.216 129.244 2.156 129.796 2.132C130.348 2.084 130.732 2.06 130.948 2.06H145.348V4.58H136.168V13.004H144.952V15.524H136.168V26ZM157.255 6.2H147.175V3.284C147.175 3.02 147.391 2.816 147.823 2.672C148.255 2.504 148.771 2.384 149.371 2.312C149.995 2.216 150.571 2.156 151.099 2.132C151.651 2.084 152.023 2.06 152.215 2.06H157.255V6.2ZM147.139 8H157.219V26H147.139V8ZM169.488 26H159.408V8H177.408C177.6 8 177.96 8.024 178.488 8.072C179.04 8.096 179.616 8.156 180.216 8.252C180.84 8.324 181.368 8.444 181.8 8.612C182.232 8.756 182.448 8.96 182.448 9.224V26H172.368V10.448H169.488V26ZM197.575 2.06H207.655V24.776C207.655 25.016 207.439 25.22 207.007 25.388C206.575 25.556 206.047 25.688 205.423 25.784C204.823 25.856 204.247 25.916 203.695 25.964C203.167 25.988 202.807 26 202.615 26H189.655C189.463 26 189.091 25.988 188.539 25.964C188.011 25.916 187.435 25.856 186.811 25.784C186.211 25.688 185.695 25.556 185.263 25.388C184.831 25.22 184.615 25.016 184.615 24.776V9.224C184.615 8.96 184.831 8.756 185.263 8.612C185.695 8.444 186.211 8.324 186.811 8.252C187.435 8.156 188.011 8.096 188.539 8.072C189.091 8.024 189.463 8 189.655 8H192.571C192.835 8 193.207 8.012 193.687 8.036C194.191 8.06 194.719 8.12 195.271 8.216C195.823 8.288 196.315 8.396 196.747 8.54C197.179 8.684 197.455 8.864 197.575 9.08V2.06ZM194.695 23.552H197.575V10.448H194.695V23.552ZM232.502 23.552V26H214.862C214.67 26 214.298 25.988 213.746 25.964C213.218 25.916 212.642 25.856 212.018 25.784C211.418 25.688 210.902 25.556 210.47 25.388C210.038 25.22 209.822 25.016 209.822 24.776V9.224C209.822 8.96 210.038 8.756 210.47 8.612C210.902 8.444 211.418 8.324 212.018 8.252C212.642 8.156 213.218 8.096 213.746 8.072C214.298 8.024 214.67 8 214.862 8H227.822C228.014 8 228.374 8.024 228.902 8.072C229.454 8.096 230.03 8.156 230.63 8.252C231.254 8.324 231.782 8.444 232.214 8.612C232.646 8.756 232.862 8.96 232.862 9.224V19.664C232.862 19.904 232.646 20.108 232.214 20.276C231.782 20.444 231.254 20.576 230.63 20.672C230.03 20.744 229.454 20.804 228.902 20.852C228.374 20.876 228.014 20.888 227.822 20.888H224.906C224.666 20.888 224.294 20.876 223.79 20.852C223.286 20.828 222.758 20.78 222.206 20.708C221.654 20.612 221.162 20.492 220.73 20.348C220.298 20.204 220.022 20.024 219.902 19.808V23.552H232.502ZM219.902 18.44H222.782V10.448H219.902V18.44ZM245.109 26H235.029V9.224C235.029 8.96 235.245 8.756 235.677 8.612C236.109 8.444 236.625 8.324 237.225 8.252C237.849 8.156 238.425 8.096 238.953 8.072C239.505 8.024 239.877 8 240.069 8H250.905V10.448H245.109V26Z" fill="#EDE8F5"/>
</svg>
