<svg width="42" height="24" viewBox="0 0 42 24" fill="none" xmlns="http://www.w3.org/2000/svg">
<path d="M10.52 24H0.08V1.32C0.08 1.056 0.308 0.839999 0.764 0.672C1.22 0.503999 1.76 0.383999 2.384 0.311998C3.008 0.215998 3.596 0.155998 4.148 0.131998C4.7 0.0839989 5.084 0.0599992 5.3 0.0599992H19.7V2.58H10.52V11.004H19.304V13.524H10.52V24ZM31.9302 24H21.4902V1.32C21.4902 1.056 21.7182 0.839999 22.1742 0.672C22.6302 0.503999 23.1702 0.383999 23.7942 0.311998C24.4182 0.215998 25.0062 0.155998 25.5582 0.131998C26.1102 0.0839989 26.4942 0.0599992 26.7102 0.0599992H41.1102V2.58H31.9302V11.004H40.7142V13.524H31.9302V24Z" fill="#EDE8F5"/>
</svg>
